# xmcd
#
# Track frame offsets: 
#        150
#        29459
#        37071
#        49715
#        63513
#        74896
#        88521
#        101431
#        116193
#        128979
#
# Disc length: 2126 seconds
#
# Revision: 0
# Processed by: cddbd v1.5.1PL0 Copyright (c) Steve Scherf et al.
# Submitted via: ExactAudioCopy v0.95a5
#
DISCID=95084c0a
DTITLE=Ray Charles - America The Beautiful
DYEAR=2004
DGENRE=Blues
TTITLE0=America The Beautiful
TTITLE1=I'm Sitting On Top Of The World
TTITLE2=Can Anyone Ask For More
TTITLE3=Someday
TTITLE4=If I Give You My Love
TTITLE5=This Love Of Mine
TTITLE6=The Snow Is Falling
TTITLE7=I'm Wonderin' And Wonderin'
TTITLE8=Don't Put All Your Dreams In One Basket
TTITLE9=Oh Happy Day
EXTD=
EXTT0=
EXTT1=
EXTT2=
EXTT3=
EXTT4=
EXTT5=
EXTT6=
EXTT7=
EXTT8=
EXTT9=
PLAYORDER=
